<?xml version="1.0" encoding="UTF-8"?>
<svg id="_レイヤー_2" data-name="レイヤー 2" xmlns="http://www.w3.org/2000/svg" viewBox="0 0 680 680">
  <defs>
    <style>
      .cls-1 {
        fill: #fff;
      }
    </style>
  </defs>
  <g id="_レイヤー_1-2" data-name="レイヤー 1">
    <rect width="680" height="680"/>
    <g>
      <path class="cls-1" d="M309.224,337.156c-29.521,0-52.473-8.867-68.854-26.607-16.389-17.734-24.576-42.716-24.576-74.947,0-22.476,2.641-43.802,7.921-63.98,5.281-20.171,12.657-38.521,22.14-55.042,9.477-16.516,20.78-30.803,33.919-42.856,13.133-12.047,27.623-21.39,43.466-28.029,15.843-6.633,32.561-9.953,50.168-9.953,29.787,0,52.809,8.874,69.058,26.607,16.249,17.74,24.373,42.996,24.373,75.76,0,22.481-2.577,43.738-7.719,63.776-5.147,20.044-12.459,38.324-21.936,54.839-9.482,16.522-20.717,30.74-33.716,42.653-12.999,11.92-27.49,21.193-43.466,27.826-15.982,6.633-32.903,9.952-50.777,9.952ZM318.567,291.253c10.016,0,19.702-2.501,29.045-7.515,9.343-5.008,17.938-12.047,25.795-21.124,7.852-9.07,14.688-19.765,20.514-32.091,5.821-12.32,10.289-25.928,13.405-40.825,3.11-14.891,4.672-30.733,4.672-47.528,0-20.038-4.062-35.138-12.187-45.293-8.124-10.156-20.044-15.233-35.747-15.233-10.022,0-19.639,2.507-28.842,7.515-9.21,5.014-17.74,12.123-25.592,21.327-7.857,9.209-14.693,19.975-20.515,32.294-5.826,12.326-10.358,25.998-13.607,41.028-3.25,15.03-4.875,30.81-4.875,47.325,0,19.771,4.062,34.732,12.187,44.887,8.124,10.156,20.038,15.233,35.747,15.233Z"/>
      <path class="cls-1" d="M427.759,337.152l46.913-219.75h47.736l-11.111,61.728-6.173-2.469c5.762-15.361,12.822-27.707,21.193-37.037,8.365-9.323,17.76-16.184,28.189-20.576,10.423-4.385,21.398-6.584,32.921-6.584,19.477,0,34.156,5.08,44.033,15.226,9.876,10.153,14.814,23.733,14.814,40.74,0,7.96-.759,16.461-2.264,25.514-1.511,9.054-3.086,16.737-4.732,23.045l-25.514,120.163h-52.675l26.749-123.867c1.093-5.208,2.058-10.494,2.881-15.843.822-5.35,1.234-10.905,1.234-16.667,0-8.23-2.405-14.538-7.202-18.93-4.803-4.385-12.14-6.584-22.016-6.584-8.783,0-16.872,2.264-24.28,6.79-7.407,4.527-13.785,11.047-19.135,19.547-5.351,8.507-9.401,18.93-12.141,31.275l-26.748,124.278h-52.675Z"/>
      <path class="cls-1" d="M46.217,643.186c4.812-23.501,11.748-46.512,20.813-69.024,9.06-22.512,19.818-44.526,32.282-66.051,12.458-21.517,26.263-42.19,41.415-62.016,15.146-19.817,31.359-38.653,48.636-56.493H37.297l10.194-47.998h208.984l-9.345,45.024c-25.486,25.486-47.72,51.185-66.688,77.095-18.975,25.911-34.83,53.521-47.573,82.829s-22.938,61.524-30.583,96.634h-56.069Z"/>
      <path class="cls-1" d="M286.982,643.152c-22.531,0-40.711-3.193-54.552-9.567-13.842-6.373-23.956-16.144-30.329-29.312-6.38-13.16-9.567-29.515-9.567-49.056l54.959-2.442c0,17.099,3.664,28.771,10.992,35.011,7.327,6.246,19.268,9.363,35.825,9.363,11.125,0,21.71-1.832,31.754-5.496,10.037-3.664,18.249-9.497,24.629-17.505,6.374-8.002,9.567-18.523,9.567-31.551,0-12.754-4.414-21.983-13.23-27.683-8.823-5.7-20.966-8.55-36.437-8.55h-24.833l8.956-41.932h24.834c11.666,0,21.913-1.628,30.736-4.885,8.815-3.257,15.673-8.143,20.559-14.656,4.885-6.513,7.327-14.655,7.327-24.426,0-11.666-3.326-20.151-9.974-25.443-6.653-5.293-16.761-7.938-30.329-7.938-17.912,0-31.213,3.256-39.896,9.77-8.688,6.514-14.795,15.063-18.319,25.647l-53.33-2.85c4.885-15.736,12.009-29.515,21.373-41.32,9.363-11.807,21.983-20.966,37.86-27.479s36.162-9.771,60.861-9.771c19.809,0,36.093,2.989,48.853,8.956,12.754,5.973,22.188,14.318,28.294,25.037,6.106,10.725,9.159,23.001,9.159,36.843,0,15.202-3.326,27.956-9.974,38.268-6.653,10.317-16.017,18.459-28.09,24.426-12.08,5.974-26.259,10.317-42.542,13.027l1.221-6.921c19.809,2.99,35.011,9.434,45.596,19.338,10.585,9.91,15.877,23.274,15.877,40.1,0,22.53-5.565,41.391-16.691,56.587-11.132,15.203-26.397,26.735-45.799,34.604-19.407,7.869-41.188,11.807-65.34,11.807Z"/>
      <path class="cls-1" d="M489.171,642.965c-20.48,0-37.562-2.769-51.259-8.301-13.697-5.531-23.937-14.592-30.714-27.186-6.783-12.588-10.169-29.397-10.169-50.429l55.617-2.905c0,14.941,3.664,25.597,10.999,31.959,7.328,6.368,18.605,9.546,33.826,9.546,14.941,0,27.809-2.905,38.6-8.716s19.157-14.177,25.11-25.11c5.947-10.928,8.924-23.866,8.924-38.808,0-12.724-4.015-22.685-12.036-29.884-8.029-7.191-19.65-10.791-34.864-10.791-12.452,0-23.801,2.697-34.034,8.094-10.24,5.396-18.263,12.522-24.073,21.375h-54.786l56.446-170.171h179.302l-9.961,46.9h-132.401l-31.544,93.802-5.811-6.226c9.131-11.622,20.267-20.545,33.412-26.771,13.139-6.226,28.566-9.338,46.277-9.338,25.733,0,45.448,6.919,59.146,20.752,13.696,13.84,20.545,32.238,20.545,55.202,0,24.903-5.604,46.972-16.81,66.2-11.207,19.235-27.05,34.177-47.523,44.825-20.48,10.649-44.553,15.979-72.219,15.979Z"/>
    </g>
  </g>
</svg>