<?xml version="1.0" encoding="UTF-8"?>
<svg id="_レイヤー_1" data-name="レイヤー 1" xmlns="http://www.w3.org/2000/svg" viewBox="0 0 2398.759 684.2">
  <defs>
    <style>
      .cls-1 {
        fill: #fff;
      }
    </style>
  </defs>
  <path class="cls-1" d="M211.6,683.38c-66.858,0-118.838-20.082-155.94-60.26C18.544,582.956,0,526.376,0,453.38c0-50.902,5.98-99.202,17.94-144.9,11.96-45.684,28.664-87.242,50.14-124.66,21.462-37.404,47.064-69.762,76.82-97.06,29.742-27.284,62.56-48.444,98.44-63.48C279.22,8.258,317.084.74,356.96.74c67.461,0,119.6,20.096,156.4,60.26,36.8,40.178,55.2,97.376,55.2,171.58,0,50.917-5.836,99.058-17.48,144.44-11.658,45.396-28.218,86.796-49.68,124.2-21.477,37.418-46.92,69.618-76.36,96.6-29.44,26.996-62.258,47.998-98.44,63.021-36.196,15.021-74.52,22.54-115,22.54ZM232.76,579.419c22.684,0,44.62-5.663,65.78-17.02,21.16-11.342,40.624-27.283,58.42-47.84,17.782-20.542,33.264-44.764,46.46-72.68,13.182-27.902,23.302-58.723,30.36-92.461,7.044-33.723,10.58-69.603,10.58-107.639,0-45.382-9.2-79.58-27.6-102.58s-45.396-34.5-80.96-34.5c-22.698,0-44.476,5.678-65.32,17.02-20.858,11.356-40.178,27.456-57.96,48.3-17.796,20.858-33.278,45.238-46.46,73.14-13.196,27.916-23.46,58.88-30.82,92.92-7.36,34.041-11.04,69.777-11.04,107.18,0,44.778,9.2,78.659,27.6,101.659s45.382,34.5,80.96,34.5Z"/>
  <path class="cls-1" d="M479.675,683.372l106.248-497.688h108.112l-25.164,139.8-13.98-5.592c13.048-34.79,29.038-62.75,47.998-83.88,18.946-21.116,40.221-36.654,63.842-46.6,23.606-9.932,48.464-14.912,74.56-14.912,44.11,0,77.356,11.504,99.724,34.484,22.368,22.995,33.552,53.75,33.552,92.268,0,18.028-1.718,37.28-5.126,57.785-3.422,20.504-6.99,37.906-10.718,52.191l-57.784,272.145h-119.296l60.58-280.533c2.476-11.795,4.66-23.766,6.524-35.881,1.864-12.116,2.796-24.698,2.796-37.747,0-18.64-5.446-32.926-16.31-42.872-10.878-9.932-27.494-14.912-49.862-14.912-19.893,0-38.212,5.126-54.988,15.378-16.776,10.252-31.222,25.018-43.338,44.27-12.116,19.266-21.291,42.873-27.494,70.832l-60.58,281.465h-119.296Z"/>
  <path class="cls-1" d="M1040.246,684.2c10.898-53.227,26.605-105.34,47.138-156.326,20.518-50.985,44.883-100.844,73.112-149.59,28.214-48.732,59.479-95.554,93.795-140.453,34.302-44.883,71.022-87.542,110.149-127.946h-344.396l23.088-108.706h473.304l-21.164,101.972c-57.721,57.72-108.075,115.921-151.034,174.603-42.975,58.682-78.884,121.212-107.744,187.59s-51.948,139.34-69.264,218.855h-126.984Z"/>
  <path class="cls-1" d="M1585.526,684.124c-51.026,0-92.2-7.231-123.548-21.667-31.348-14.435-54.254-36.563-68.689-66.384-14.45-29.807-21.667-66.845-21.667-111.101l124.47-5.532c0,38.724,8.298,65.159,24.894,79.292,16.597,14.146,43.637,21.206,81.137,21.206,25.196,0,49.168-4.149,71.916-12.447,22.732-8.298,41.331-21.509,55.78-39.646,14.436-18.123,21.667-41.95,21.667-71.454,0-28.885-9.998-49.788-29.965-62.696-19.981-12.908-47.482-19.362-82.519-19.362h-56.242l20.284-94.966h56.241c26.422,0,49.63-3.688,69.611-11.063,19.967-7.376,35.497-18.44,46.562-33.192,11.063-14.752,16.596-33.192,16.596-55.32,0-26.421-7.534-45.639-22.589-57.625-15.069-11.985-37.961-17.979-68.689-17.979-40.567,0-70.691,7.376-90.355,22.128-19.68,14.752-33.509,34.114-41.49,58.086l-120.782-6.454c11.064-35.641,27.199-66.845,48.405-93.583s49.788-47.483,85.746-62.235S1664.199,0,1720.138,0c44.861,0,81.741,6.771,110.64,20.284,28.885,13.527,50.249,32.429,64.079,56.703,13.83,24.289,20.745,52.093,20.745,83.441,0,34.431-7.534,63.315-22.589,86.668-15.069,23.366-36.275,41.807-63.618,55.319-27.357,13.527-59.469,23.367-96.349,29.504l2.766-15.674c44.861,6.771,79.292,21.364,103.264,43.795,23.973,22.445,35.958,52.713,35.958,90.817,0,51.026-12.605,93.741-37.802,128.157-25.211,34.432-59.786,60.55-103.725,78.37-43.954,17.821-93.28,26.738-147.981,26.738Z"/>
  <path class="cls-1" d="M2043.439,683.699c-46.383,0-85.07-6.271-116.09-18.8-31.02-12.529-54.211-33.047-69.561-61.57-15.363-28.508-23.029-66.578-23.029-114.21l125.959-6.58c0,33.841,8.299,57.972,24.91,72.38,16.598,14.424,42.139,21.62,76.611,21.62,33.84,0,62.979-6.58,87.42-19.739,24.439-13.16,43.387-32.107,56.869-56.871,13.469-24.748,20.211-54.049,20.211-87.89,0-28.817-9.092-51.377-27.26-67.68-18.184-16.289-44.504-24.44-78.961-24.44-28.199,0-53.902,6.11-77.08,18.33-23.191,12.221-41.359,28.361-54.52,48.41h-124.08L1992.679,1.259h406.08l-22.561,106.22h-299.859l-71.439,212.44-13.16-14.1c20.68-26.32,45.898-46.53,75.67-60.63,29.756-14.1,64.697-21.15,104.809-21.15,58.281,0,102.932,15.672,133.951,47,31.02,31.343,46.529,73.012,46.529,125.021,0,56.399-12.689,106.381-38.07,149.93-25.379,43.562-61.262,77.402-107.629,101.52-46.383,24.117-100.904,36.19-163.561,36.19Z"/>
</svg>